<svg xmlns="http://www.w3.org/2000/svg" width="16" height="27" viewBox="0 0 16 27" fill="none">
  <path d="M 8.107 16.878 C 4.248 16.878 1.298 12.333 1.298 6.577 C 1.298 0.822 3.756 0 8.107 0 C 12.457 0 14.702 0.822 14.702 6.577 C 14.702 12.333 11.615 16.878 8.107 16.878 Z M 15.843 22.131 C 16.16 22.64 15.981 23.297 15.443 23.597 C 15.263 23.698 15.065 23.745 14.87 23.745 C 14.483 23.745 14.105 23.557 13.894 23.218 C 13.53 22.635 13.157 22.219 12.737 21.84 C 12.317 21.463 11.84 21.124 11.294 20.73 C 11.027 20.539 10.762 20.374 10.497 20.233 C 10.528 20.288 10.559 20.343 10.591 20.401 C 11.358 21.794 12.149 23.728 12.152 25.93 C 12.152 26.521 11.646 27 11.022 27 C 10.396 27 9.89 26.521 9.89 25.93 C 9.894 24.255 9.273 22.645 8.618 21.451 C 8.406 21.061 8.193 20.717 8 20.43 C 7.817 20.704 7.615 21.028 7.412 21.394 C 6.747 22.593 6.105 24.23 6.109 25.93 C 6.109 26.521 5.603 27 4.978 27 C 4.354 27 3.848 26.521 3.848 25.93 C 3.852 23.728 4.642 21.794 5.409 20.401 C 5.44 20.343 5.471 20.288 5.504 20.233 C 5.238 20.374 4.973 20.539 4.706 20.73 C 4.159 21.124 3.682 21.463 3.263 21.84 C 2.843 22.219 2.469 22.635 2.105 23.219 C 1.788 23.728 1.094 23.897 0.557 23.597 C 0.019 23.297 -0.16 22.64 0.157 22.131 C 0.63 21.369 1.162 20.775 1.707 20.287 C 2.253 19.798 2.802 19.412 3.336 19.026 C 3.589 18.843 3.848 18.675 4.113 18.522 C 3.848 18.37 3.589 18.201 3.336 18.018 C 2.115 17.137 1.055 15.95 0.157 14.508 C -0.16 13.998 0.019 13.341 0.557 13.042 C 1.094 12.742 1.788 12.911 2.105 13.42 C 2.883 14.67 3.765 15.637 4.705 16.314 C 5.713 17.035 6.702 17.392 7.721 17.449 C 7.813 17.446 7.907 17.444 8 17.444 C 8.093 17.444 8.186 17.446 8.279 17.449 C 9.297 17.392 10.287 17.035 11.294 16.314 C 12.234 15.637 13.118 14.67 13.894 13.42 C 14.212 12.911 14.905 12.742 15.443 13.042 C 15.981 13.341 16.16 13.998 15.843 14.507 C 14.946 15.95 13.884 17.137 12.663 18.018 C 12.411 18.201 12.151 18.37 11.887 18.522 C 12.151 18.675 12.411 18.843 12.663 19.026 C 13.198 19.412 13.747 19.798 14.294 20.287 C 14.839 20.775 15.369 21.369 15.843 22.131 Z M 6.512 13.145 C 5.888 13.145 5.382 13.625 5.382 14.215 C 5.382 14.808 5.888 15.287 6.512 15.287 C 7.137 15.287 7.643 14.808 7.643 14.215 C 7.643 13.625 7.137 13.145 6.512 13.145 Z M 9.487 13.145 C 8.863 13.145 8.356 13.625 8.356 14.215 C 8.356 14.808 8.863 15.287 9.487 15.287 C 10.112 15.287 10.618 14.808 10.618 14.215 C 10.618 13.625 10.112 13.145 9.487 13.145 Z" fill="currentColor" fill-rule="nonzero"></path>
</svg>